<?xml version="1.0" encoding="utf-8"?>
<!-- Generator: Adobe Illustrator 24.3.0, SVG Export Plug-In . SVG Version: 6.00 Build 0)  -->
<svg version="1.1" id="Layer_1" xmlns="http://www.w3.org/2000/svg" xmlns:xlink="http://www.w3.org/1999/xlink" x="0px" y="0px"
	 viewBox="0 0 1390.95 756.72" style="enable-background:new 0 0 1390.95 756.72;" xml:space="preserve">
<g>
	<g>
		<g>
			<g>
				<path style="fill:#FFFFFF;" d="M1222.97,242.52C881.74,275.6,540.8,275.57,199.85,245.5c-0.09-1.2-0.18-2.41-0.27-3.61
					c3.66-0.33,7.31-0.81,10.97-0.96c62.45-2.56,124.91-5.03,187.35-7.63c25.73-1.07,46.08-12.37,60.09-33.89
					c7.26-11.16,13.69-22.99,19.33-35.06c27.72-59.26,66.2-108.65,125.94-138.76C706.8-26.61,832.89,2.9,904.18,97.25
					c15.52,20.54,26.99,44.16,40.05,66.52c4.69,8.03,8.42,16.62,12.85,24.82c16.32,30.24,41.33,44.62,76.11,45.39
					c60.85,1.33,121.67,4.52,182.49,7C1218.12,241.07,1220.54,241.99,1222.97,242.52z M726.43,247.92
					c45.23-2.45,105.93-5.6,166.61-9.14c14.5-0.85,17.3-4.61,12.03-17.6c-8.8-21.72-17.28-43.82-28.72-64.18
					C815.42,48.49,692.98,41.42,618.53,83.12c-56.45,31.62-84.43,84.43-103.02,143.52c-2.77,8.81,3.49,11.34,10.74,11.97
					c18.93,1.65,37.84,3.88,56.82,4.67C625.64,245.06,668.23,246.1,726.43,247.92z"/>
				<path style="fill:#FFFFFF;" d="M710.51,502.37c-84.78-5.03-167.1-42.01-218.31-132.56c-9.43-16.68-15.53-35.62-20.76-54.2
					c-5.83-20.73-0.05-27.49,20.99-29.85c28.58-3.2,28.11-3.07,35.64,24.33c16.35,59.49,55.59,99.13,111.47,121.9
					c72.7,29.64,141.81,24.12,204.11-27.24c7.46-6.15,14-13.56,20.25-20.99c4.37-5.19,8.15-5.49,13.37-1.75
					c6.26,4.48,12.95,8.37,19.18,12.88c15.09,10.93,15.8,18.21,3.91,33.13c-17.07,21.39-39.14,36.51-63.15,48.62
					C800.27,495.28,767.4,502.34,710.51,502.37z"/>
			</g>
		</g>
	</g>
	<g>
		<polygon style="fill:#FFFFFF;" points="15.05,687.66 67.87,687.66 67.87,674.86 15.05,674.86 15.05,642.52 74.33,642.52 
			74.33,629.43 0,629.43 0,734.75 76.43,734.75 76.43,721.66 15.05,721.66 		"/>
		<path style="fill:#FFFFFF;" d="M219.09,744.84c-2.71,0-5.41-0.53-8.13-1.58c-2.7-1.05-5.44-2.76-8.2-5.11
			c-1.29-1.11-2.62-2.36-3.96-3.77c2.68-0.61,5.29-1.41,7.8-2.4c6.81-2.66,12.73-6.43,17.75-11.29s8.9-10.56,11.67-17.08
			c2.76-6.51,4.13-13.69,4.13-21.52c0-7.72-1.38-14.86-4.13-21.44c-2.77-6.57-6.65-12.28-11.67-17.15
			c-5.02-4.87-10.94-8.63-17.75-11.29c-6.82-2.66-14.25-3.98-22.27-3.98c-8.13,0-15.61,1.36-22.42,4.06
			c-6.82,2.71-12.74,6.5-17.76,11.37c-5.02,4.87-8.92,10.56-11.73,17.07c-2.81,6.52-4.22,13.65-4.22,21.37
			c0,7.73,1.41,14.85,4.22,21.37c2.81,6.52,6.72,12.22,11.73,17.08c5.02,4.86,10.96,8.65,17.84,11.37
			c5.76,2.26,11.92,3.58,18.49,3.95c3.07,3.2,5.96,5.96,8.66,8.31c3.41,2.96,6.72,5.36,9.94,7.22c3.21,1.85,6.42,3.21,9.63,4.06
			c3.21,0.86,6.57,1.28,10.07,1.28c10.84,0,19.67-4.11,26.48-12.34l-7.07-8.58C232.88,741.82,226.51,744.84,219.09,744.84z
			 M154.99,710.98c-3.71-3.7-6.6-8.02-8.65-12.94c-2.06-4.91-3.09-10.23-3.09-15.95c0-5.81,1.03-11.18,3.09-16.09
			c2.06-4.92,4.94-9.2,8.65-12.87c3.7-3.66,8.05-6.49,13.01-8.49c4.96-2.01,10.35-3.01,16.18-3.01c5.92,0,11.36,1,16.33,3.01
			c4.96,2,9.28,4.83,12.94,8.49c3.66,3.67,6.52,7.95,8.58,12.87c2.06,4.91,3.08,10.28,3.08,16.09c0,5.73-1.02,11.04-3.08,15.95
			c-2.06,4.92-4.92,9.24-8.58,12.94c-3.66,3.71-7.98,6.58-12.94,8.58c-4.97,2.01-10.41,3.01-16.33,3.01c-5.82,0-11.22-1-16.18-3.01
			C163.04,717.55,158.69,714.69,154.99,710.98z"/>
		<path style="fill:#FFFFFF;" d="M372.87,688.72c0,11.73-2.58,20.31-7.75,25.73c-5.17,5.41-12.52,8.13-22.04,8.13
			c-9.43,0-16.73-2.71-21.89-8.13c-5.17-5.41-7.75-13.99-7.75-25.73v-59.29h-15.05v59.88c0,15.25,3.96,26.84,11.89,34.77
			c7.92,7.92,18.8,11.88,32.65,11.88c13.94,0,24.85-3.96,32.73-11.88c7.87-7.92,11.81-19.51,11.81-34.77v-59.88h-14.6V688.72z"/>
		<rect x="454.43" y="629.43" style="fill:#FFFFFF;" width="15.05" height="105.32"/>
		<polygon style="fill:#FFFFFF;" points="552.23,629.43 537.19,629.43 537.19,734.75 609.26,734.75 609.26,721.66 552.23,721.66 		
			"/>
		<rect x="662.67" y="629.43" style="fill:#FFFFFF;" width="15.05" height="105.32"/>
		<path style="fill:#FFFFFF;" d="M831.96,691.19c-2.71-4.06-6.37-7.15-10.98-9.25c-1.52-0.69-3.12-1.27-4.8-1.74
			c0.04-0.02,0.09-0.04,0.13-0.06c4.32-2.11,7.75-5.13,10.31-9.03c2.55-3.92,3.83-8.73,3.83-14.45c0-8.43-3.26-15.07-9.77-19.93
			c-6.52-4.87-15.86-7.3-28-7.3h-47.24v105.32h50.26c13.33,0,23.4-2.47,30.17-7.45c6.77-4.96,10.15-11.95,10.15-20.98
			C836.02,700.3,834.67,695.26,831.96,691.19z M760.49,641.61h30.85c7.62,0,13.54,1.41,17.75,4.21c4.22,2.81,6.32,7.03,6.32,12.65
			c0,5.62-2.1,9.83-6.32,12.64c-4.21,2.81-10.13,4.21-17.75,4.21h-30.85V641.61z M814.2,718.35c-4.41,2.82-10.77,4.22-19.11,4.22
			h-34.6v-35.06h34.6c8.34,0,14.7,1.4,19.11,4.21c4.41,2.81,6.63,7.28,6.63,13.39C820.83,711.13,818.61,715.55,814.2,718.35z"/>
		<path style="fill:#FFFFFF;" d="M957.29,699.49c0.98-0.35,1.94-0.74,2.87-1.15c6.52-2.91,11.54-7.09,15.04-12.56
			c3.52-5.47,5.28-12.01,5.28-19.64c0-7.63-1.76-14.19-5.28-19.71c-3.5-5.52-8.52-9.74-15.04-12.64
			c-6.52-2.91-14.39-4.36-23.62-4.36h-41.08v105.32h15.04v-32.04h26.04c2.32,0,4.55-0.1,6.7-0.27l22.64,32.31h16.4L957.29,699.49z
			 M936.09,689.91H910.5v-47.39h25.59c9.62,0,16.92,2.05,21.89,6.17c4.96,4.11,7.45,9.93,7.45,17.45c0,7.53-2.49,13.37-7.45,17.53
			C953.01,687.83,945.71,689.91,936.09,689.91z"/>
		<rect x="1040.96" y="629.43" style="fill:#FFFFFF;" width="15.05" height="105.32"/>
		<path style="fill:#FFFFFF;" d="M1197.3,688.72c0,11.73-2.58,20.31-7.75,25.73c-5.17,5.41-12.52,8.13-22.04,8.13
			c-9.43,0-16.73-2.71-21.89-8.13s-7.75-13.99-7.75-25.73v-59.29h-15.05v59.88c0,15.25,3.96,26.84,11.89,34.77
			c7.92,7.92,18.8,11.88,32.65,11.88c13.94,0,24.85-3.96,32.73-11.88c7.87-7.92,11.81-19.51,11.81-34.77v-59.88h-14.6V688.72z"/>
		<polygon style="fill:#FFFFFF;" points="1390.8,629.43 1378.47,629.43 1335.11,703.42 1291.2,629.43 1278.86,629.43 
			1278.86,734.75 1293.3,734.75 1293.3,658.43 1331.37,721.97 1338.29,721.97 1376.37,657.95 1376.51,734.75 1390.95,734.75 		"/>
	</g>
</g>
<g>
</g>
<g>
</g>
<g>
</g>
<g>
</g>
<g>
</g>
<g>
</g>
<g>
</g>
<g>
</g>
<g>
</g>
<g>
</g>
<g>
</g>
<g>
</g>
<g>
</g>
<g>
</g>
<g>
</g>
</svg>
